<svg width="262" height="39" viewBox="0 0 262 39" fill="none" xmlns="http://www.w3.org/2000/svg">
<path fill-rule="evenodd" clip-rule="evenodd" d="M0 0H262V38.4399H0V0Z" fill="#004D7D"/>
<path fill-rule="evenodd" clip-rule="evenodd" d="M83.6641 9.19519H87.9144H99.1429V13.1396H87.9144V16.4794H95.1949V20.4238H87.9144V26.3404H99.1429V30.2884H87.9144H83.6641V26.3404V20.4238V16.4794V13.1396V9.19519Z" fill="white"/>
<path fill-rule="evenodd" clip-rule="evenodd" d="M103.088 30.2883V9.19519H111.509C114.306 9.16512 117 10.2473 118.999 12.2035C120.998 14.1598 122.137 16.83 122.167 19.6266C122.198 22.4232 121.115 25.1173 119.159 27.1161C117.203 29.1149 114.533 30.2547 111.736 30.2848H103.099L103.088 30.2883ZM107.335 13.2152V26.2648H111.509C113.24 26.2648 114.899 25.5773 116.123 24.3537C117.347 23.1301 118.034 21.4705 118.034 19.74C118.034 18.0095 117.347 16.3499 116.123 15.1262C114.899 13.9026 113.24 13.2152 111.509 13.2152H107.335Z" fill="white"/>
<path fill-rule="evenodd" clip-rule="evenodd" d="M124.332 30.2884V9.19519H128.579V30.2884H124.332Z" fill="white"/>
<path fill-rule="evenodd" clip-rule="evenodd" d="M155.25 9.19519H159.5H170.729V13.1396H159.5V16.4794H166.784V20.4238H159.5V26.3404H170.729V30.2884H159.5H155.25V26.3404V20.4238V16.4794V13.1396V9.19519Z" fill="white"/>
<path fill-rule="evenodd" clip-rule="evenodd" d="M201.426 30.2884V13.1396H194.75V9.19519H212.352V13.1396H205.676V30.2884H201.426Z" fill="white"/>
<path fill-rule="evenodd" clip-rule="evenodd" d="M238.74 30.2883V9.19519H249.738C251.277 9.28496 252.736 9.91046 253.862 10.9632C254.988 12.016 255.71 13.4296 255.903 14.9589C256.095 16.4883 255.747 18.0368 254.917 19.336C254.088 20.6353 252.83 21.6032 251.362 22.0721L256.101 30.2775H251.563L247 22.36H243.005V30.2775L238.74 30.2883ZM242.987 13.1684V19.1425H249.738C250.459 19.0422 251.12 18.6846 251.598 18.1356C252.075 17.5866 252.339 16.8833 252.339 16.1555C252.339 15.4276 252.075 14.7243 251.598 14.1753C251.12 13.6264 250.459 13.2687 249.738 13.1684H242.987Z" fill="white"/>
<path fill-rule="evenodd" clip-rule="evenodd" d="M224.697 8.19109C226.882 8.19109 229.018 8.83909 230.835 10.0531C232.652 11.2672 234.068 12.9927 234.905 15.0116C235.741 17.0305 235.96 19.252 235.533 21.3952C235.107 23.5384 234.055 25.5071 232.51 27.0523C230.964 28.5975 228.996 29.6497 226.853 30.0761C224.709 30.5024 222.488 30.2836 220.469 29.4473C218.45 28.6111 216.724 27.1949 215.51 25.378C214.296 23.5611 213.648 21.4249 213.648 19.2397C213.648 17.7887 213.933 16.3517 214.488 15.011C215.044 13.6703 215.857 12.4522 216.883 11.4261C217.91 10.4001 219.128 9.58624 220.468 9.03116C221.809 8.47608 223.246 8.19062 224.697 8.19109ZM224.697 12.2291C226.084 12.2291 227.439 12.6402 228.592 13.4106C229.745 14.1809 230.643 15.2758 231.174 16.5569C231.705 17.8379 231.844 19.2475 231.573 20.6074C231.302 21.9674 230.635 23.2165 229.654 24.197C228.674 25.1775 227.425 25.8452 226.065 26.1157C224.705 26.3862 223.295 26.2473 222.014 25.7167C220.733 25.1861 219.638 24.2875 218.868 23.1346C218.098 21.9817 217.686 20.6263 217.686 19.2397C217.686 17.3804 218.425 15.5972 219.74 14.2824C221.055 12.9677 222.838 12.2291 224.697 12.2291Z" fill="white"/>
<path fill-rule="evenodd" clip-rule="evenodd" d="M184.382 8.1911C185.933 8.18902 187.467 8.51463 188.883 9.14661C190.3 9.7786 191.567 10.7027 192.601 11.8584L189.6 14.5612C188.636 13.4901 187.365 12.7424 185.96 12.4201C184.555 12.0977 183.085 12.2163 181.75 12.7597C180.416 13.3031 179.281 14.2449 178.501 15.4567C177.721 16.6684 177.333 18.0913 177.391 19.5313C177.449 20.9713 177.95 22.3585 178.825 23.5037C179.7 24.6489 180.906 25.4964 182.28 25.9308C183.655 26.3652 185.129 26.3653 186.504 25.9311C187.878 25.4969 189.085 24.6495 189.96 23.5044L193.152 25.9733C192.008 27.4621 190.502 28.6347 188.779 29.3803C187.055 30.1258 185.17 30.4198 183.301 30.2344C181.433 30.0489 179.642 29.3902 178.099 28.3205C176.555 27.2508 175.31 25.8053 174.48 24.1205C173.651 22.4358 173.264 20.5674 173.357 18.6918C173.45 16.8162 174.02 14.9953 175.013 13.401C176.005 11.8067 177.387 10.4917 179.029 9.58015C180.671 8.66856 182.518 8.1905 184.396 8.1911H184.382Z" fill="white"/>
<path fill-rule="evenodd" clip-rule="evenodd" d="M139.695 30.2884L132.439 9.19519H137.276L142.524 24.4437L147.767 9.19519H152.608L145.349 30.2884H144.532H140.512H139.695Z" fill="white"/>
<path fill-rule="evenodd" clip-rule="evenodd" d="M53.4551 30.2884L56.3522 9.19519H56.4961H60.5989H61.0308L67.2281 25.2283L73.429 9.19519H73.904H77.9636H78.1543L81.0515 30.2884H76.5168L74.9153 17.3611L70.0964 30.2884H69.1859H65.2739H64.3633L59.5768 17.4583L57.9897 30.2884H53.4551Z" fill="white"/>
<path d="M24.3978 23.9687C24.369 24.0278 24.3288 24.0806 24.2796 24.1242C24.2304 24.1678 24.173 24.2012 24.1108 24.2226C24.0487 24.244 23.9829 24.2529 23.9173 24.2489C23.8517 24.2448 23.7875 24.2279 23.7284 24.199L9.23203 17.0516C9.17017 17.0244 9.11446 16.985 9.06826 16.9356C9.02207 16.8863 8.98634 16.8282 8.96324 16.7647C8.94013 16.7012 8.93014 16.6336 8.93385 16.5662C8.93756 16.4987 8.9549 16.4327 8.98483 16.3721C9.01476 16.3115 9.05665 16.2576 9.10798 16.2137C9.15931 16.1697 9.21901 16.1366 9.28348 16.1164C9.34795 16.0961 9.41585 16.0892 9.48309 16.0959C9.55033 16.1026 9.6155 16.1229 9.67469 16.1555L23.7536 23.0905L13.216 11.79C13.1466 11.6917 13.115 11.5716 13.127 11.4519C13.139 11.3321 13.1937 11.2207 13.2812 11.138C13.3686 11.0554 13.483 11.007 13.6032 11.0018C13.7235 10.9966 13.8415 11.035 13.9358 11.1098L24.3726 22.324L19.093 7.42813C19.0563 7.30495 19.0683 7.17236 19.1267 7.05784C19.1851 6.94333 19.2854 6.8557 19.4066 6.81311C19.5279 6.77052 19.6609 6.77626 19.7781 6.82912C19.8953 6.88198 19.9876 6.97792 20.0359 7.09703L25.2543 21.7446V6.02816C25.265 5.90235 25.3225 5.78512 25.4155 5.69969C25.5085 5.61426 25.6301 5.56686 25.7564 5.56686C25.8826 5.56686 26.0043 5.61426 26.0973 5.69969C26.1903 5.78512 26.2478 5.90235 26.2584 6.02816V21.741L31.4768 7.09703C31.5252 6.97792 31.6175 6.88198 31.7347 6.82912C31.8518 6.77626 31.9848 6.77052 32.1061 6.81311C32.2274 6.8557 32.3276 6.94333 32.386 7.05784C32.4444 7.17236 32.4565 7.30495 32.4197 7.42813L27.115 22.324L37.5518 11.1098C37.646 11.035 37.7641 10.9966 37.8843 11.0018C38.0046 11.007 38.1189 11.0554 38.2064 11.138C38.2939 11.2207 38.3486 11.3321 38.3606 11.4519C38.3725 11.5716 38.3409 11.6917 38.2716 11.79L27.7448 23.0905L41.8165 16.1555C41.8757 16.1229 41.9408 16.1026 42.0081 16.0959C42.0753 16.0892 42.1432 16.0961 42.2077 16.1164C42.2722 16.1366 42.3319 16.1697 42.3832 16.2137C42.4345 16.2576 42.4764 16.3115 42.5063 16.3721C42.5363 16.4327 42.5536 16.4987 42.5573 16.5662C42.561 16.6336 42.551 16.7012 42.5279 16.7647C42.5048 16.8282 42.4691 16.8863 42.4229 16.9356C42.3767 16.985 42.321 17.0244 42.2591 17.0516L27.7844 24.2062C27.6744 24.2595 27.5487 24.271 27.4309 24.2386C27.313 24.2062 27.211 24.132 27.1438 24.0299L26.7839 23.4504C26.6111 23.3497 26.424 23.2525 26.2584 23.1553L25.7798 23.0474L25.2471 23.1733L24.7721 23.4504L24.4122 23.9831L24.3978 23.9687ZM25.8086 30.0868L26.7623 29.6298L27.0718 28.7372C27.0951 28.671 27.1321 28.6104 27.1805 28.5596C27.2289 28.5087 27.2875 28.4687 27.3525 28.4421L44.6596 21.2119L44.2062 19.9919L27.2913 26.9558L26.7263 27.6756C26.6788 27.7339 26.619 27.7809 26.5512 27.8132C26.4834 27.8456 26.4092 27.8625 26.334 27.8627H25.1932C25.1179 27.863 25.0435 27.8463 24.9756 27.8139C24.9077 27.7815 24.848 27.7342 24.8009 27.6756L24.2358 26.9558L7.32101 19.9919L6.83876 21.2227L24.1495 28.4529C24.2144 28.4789 24.2729 28.5187 24.3208 28.5697C24.3686 28.6207 24.4048 28.6816 24.4266 28.748L24.7397 29.6405L25.6934 30.0976L25.8086 30.0868ZM25.7582 26.8478H26.0893L26.5823 26.2288C26.6382 26.1648 26.7068 26.1133 26.7839 26.0776L44.3177 18.8798C44.4418 18.8344 44.5788 18.84 44.6989 18.8953C44.8189 18.9506 44.9122 19.0511 44.9583 19.1749L45.7609 21.3091C45.7863 21.3698 45.7994 21.4349 45.7996 21.5007C45.7997 21.5666 45.7869 21.6318 45.7618 21.6926C45.7368 21.7534 45.6999 21.8087 45.6534 21.8553C45.607 21.9019 45.5517 21.9389 45.491 21.9641L27.9427 29.2915L27.644 30.1516C27.6236 30.2175 27.5897 30.2784 27.5445 30.3304C27.4992 30.3824 27.4437 30.4245 27.3813 30.4539L26.0173 31.1125C25.8513 31.1809 25.665 31.1809 25.4991 31.1125L24.1315 30.4539C24.0695 30.4245 24.0144 30.3824 23.9698 30.3303C23.9251 30.2782 23.892 30.2173 23.8724 30.1516L23.5737 29.2915L6.02541 21.9605C5.96462 21.9353 5.9094 21.8983 5.86292 21.8517C5.81644 21.8052 5.7796 21.7499 5.75453 21.689C5.72946 21.6282 5.71663 21.563 5.7168 21.4972C5.71696 21.4313 5.73011 21.3662 5.75549 21.3055L6.55445 19.1677C6.60135 19.0437 6.6953 18.9431 6.81591 18.8878C6.93652 18.8326 7.07405 18.8271 7.19865 18.8726L24.7289 26.0704C24.8071 26.1042 24.8761 26.156 24.9304 26.2216L25.4235 26.8406L25.7582 26.8478Z" fill="white"/>
</svg>
