<svg xmlns="http://www.w3.org/2000/svg"> 
	<symbol id="vk"   viewBox="0 0 22 13" >
		<path d="M19.5722 8.99621C17.7242 7.22773 17.9601 7.49685 20.2013 4.45966C21.5382 2.61428 22.0886 1.46092 21.9313 0.961134C21.8527 0.653571 20.7911 0.730462 20.7911 0.730462H17.4883C17.4883 0.730462 16.9771 0.730462 16.7805 1.07647C16.4267 1.73004 16.2694 2.53739 15.5616 3.7292C14.0675 6.30504 13.4777 6.45882 13.2418 6.30504C12.6913 5.92059 12.8093 4.80567 12.8093 3.99832C12.8093 1.49937 13.1632 0.461344 12.1016 0.153781C11.8656 0.0768906 11.669 0.0768901 11.3152 0.0384448C10.8827 -5.87203e-07 10.4502 0 10.057 0C9.07399 0 8.32692 0.0384449 7.81577 0.269117C7.42258 0.461344 7.14735 0.884243 7.34394 0.922689C7.57986 0.961134 8.05169 1.07647 8.32692 1.42248C8.68079 1.88382 8.64147 2.96029 8.64147 2.96029C8.64147 2.96029 8.83807 5.92059 8.16964 6.26659C7.73713 6.53571 7.10803 5.99748 5.8105 3.65231C5.14207 2.4605 5.06343 1.65315 4.63092 1.11492C4.35569 0.768907 3.84454 0.653571 3.84454 0.653571H0.699007C0.699007 0.653571 0.148539 0.615126 0.0699007 0.768907C-0.0873759 0.961134 0.0699007 1.34559 0.0699007 1.34559C0.0699007 1.34559 2.54701 7.30462 5.33867 10.3034C7.81577 13.1483 10.7254 12.9945 10.7254 12.9945C10.7254 12.9945 12.4161 13.0714 12.652 12.6485C12.8093 12.4947 12.8486 12.0334 12.8486 12.0334C12.8486 12.0334 12.8093 10.188 13.635 9.9189C14.4607 9.64979 15.483 11.6874 16.5839 12.4563C17.4096 13.0714 17.6456 12.9945 18.0387 12.9945H20.9877C20.9877 12.9945 22.5211 12.8408 21.8134 11.5721C21.6954 11.4952 21.3416 10.6878 19.5722 8.99621Z"  />
	</symbol>
	<symbol id="mail" viewBox="0 0 22 15"  >
		<path d="M21.9993 1.90669C21.9992 1.90484 21.9993 1.90295 21.9992 1.90106C21.9817 0.849877 21.1217 0 20.0664 0H1.93363C0.878366 0 0.0183482 0.849877 0.000859967 1.90106C-0.00051503 1.92912 0.000215437 8.63825 4.35626e-05 12.2461C4.35626e-05 13.3123 0.867452 14.1797 1.93363 14.1797H20.0664C21.1326 14.1797 22 13.3123 22 12.2461C21.9999 10.0688 22.0003 1.98245 21.9993 1.90669ZM1.93363 1.28906H20.0664C20.3229 1.28906 20.5443 1.44005 20.6479 1.65752L11.3867 8.57225C11.159 8.74301 10.841 8.74305 10.6122 8.57143L1.3521 1.65747C1.45578 1.44005 1.67711 1.28906 1.93363 1.28906ZM20.7109 12.2461C20.7109 12.6015 20.4218 12.8906 20.0664 12.8906H1.93363C1.57824 12.8906 1.2891 12.6015 1.2891 12.2461V3.21917L9.83987 9.6035C10.1816 9.85976 10.591 9.98785 11.0004 9.98785C11.4093 9.98785 11.8182 9.85993 12.1591 9.60431L20.7109 3.21917V12.2461Z"/>
	</symbol>
	<symbol id="search" viewBox="0 0 20 20"  >
		<path d="M7.61719 0C11.8173 0 15.2344 3.41707 15.2344 7.61719C15.2344 9.0818 14.8185 10.4509 14.0991 11.6134L19.4702 16.9844C19.8119 17.318 20 17.7645 20 18.2422C20 19.2114 19.2114 20 18.2422 20C17.7645 20 17.318 19.8119 16.9845 19.4702L11.6134 14.0991C10.4509 14.8185 9.0818 15.2344 7.61719 15.2344C3.41707 15.2344 0 11.8173 0 7.61719C0 3.41707 3.41707 0 7.61719 0ZM17.8218 18.6504C17.9332 18.765 18.0824 18.8281 18.2422 18.8281C18.5653 18.8281 18.8281 18.5653 18.8281 18.2422C18.8281 18.0825 18.765 17.9331 18.6504 17.8218C18.6464 17.818 18.738 17.9095 13.399 12.5705C13.1443 12.8673 12.8673 13.1443 12.5705 13.399C13.7645 14.5929 17.8178 18.6461 17.8218 18.6504ZM7.61719 14.0625C11.1711 14.0625 14.0625 11.1711 14.0625 7.61719C14.0625 4.06324 11.1711 1.17188 7.61719 1.17188C4.06324 1.17188 1.17188 4.06324 1.17188 7.61719C1.17188 11.1711 4.06324 14.0625 7.61719 14.0625Z" />
	</symbol>
	<symbol id="close" viewBox="0 0 16 16" >
		<path d="M1.50026 13.5208L13.5211 1.5M1.5 1.5L13.5208 13.5208"   stroke-width="3" stroke-linecap="round" stroke-linejoin="round"/>
	</symbol>
	<symbol id="open" viewBox="0 0 20 17" >
		<path d="M0 0H20V2.36025H0V0Z"  />
		<path d="M0 7.08075H20V9.44099H0V7.08075Z"  />
		<path d="M0 14.1615H20V16.5217H0V14.1615Z" />
	</symbol>
	<symbol id="user"  viewBox="0 0 18 18" >
		<path d="M17.8262 13.5607C17.345 11.6929 16.197 10.3778 14.4326 9.54024C14.5846 10.0176 14.7618 10.4532 14.8462 10.9055C14.9053 11.2322 14.9982 11.4332 15.319 11.5923C15.969 11.919 16.2054 12.7398 15.91 13.3932C15.606 14.0465 14.88 14.3732 14.1963 14.1638C13.6306 13.9879 13.2339 13.5356 13.1832 12.9995C13.1157 12.3211 13.3858 11.8436 13.9768 11.5169C14.0865 11.4583 14.2385 11.3076 14.23 11.2154C14.1541 10.5537 13.943 9.92554 13.4533 9.44806C13.3098 9.30567 13.1157 9.2219 12.8962 9.11302C12.6767 9.54024 12.4066 9.92554 12.0943 10.2354C11.3176 11.006 10.1527 11.4834 9.04676 11.4834C7.8818 11.4834 6.84345 10.9976 5.99928 10.2354C5.64472 9.90877 5.37459 9.52347 5.17198 9.09626C4.80055 9.09626 4.53041 9.27216 4.34469 9.57368C4.15053 9.892 4.0239 10.2438 3.87195 10.5872C3.70312 10.9725 3.84662 11.2991 4.16741 11.4834C5.18887 12.0697 5.39991 13.0832 5.56875 14.0967C5.62784 14.4486 5.62784 14.8171 5.59407 15.1773C5.53498 15.8557 4.82587 16.3164 4.16741 16.0986C4.01546 16.0484 3.82974 15.8055 3.83818 15.6631C3.84663 15.5374 4.07455 15.3616 4.24339 15.3113C4.42911 15.2526 4.6486 15.2945 4.8512 15.2945C5.07068 14.1972 4.70768 13.3261 4.03234 12.564C3.64402 12.12 3.28103 12.1451 2.90959 12.5974C2.7492 12.7901 2.64789 13.033 2.48749 13.2173C1.95567 13.8287 2.01476 14.5407 2.07385 15.2945C2.33555 15.2945 2.57192 15.2526 2.78296 15.3113C2.92647 15.3448 3.11219 15.504 3.12908 15.6379C3.1544 15.772 3.03621 15.9981 2.90959 16.0652C2.30177 16.3834 1.42384 15.906 1.3563 15.2275C1.31409 14.859 1.30565 14.4737 1.36475 14.1052C1.52513 13.0917 1.77839 12.1116 2.7492 11.5086C2.90959 11.4081 3.06153 11.2322 3.11219 11.0647C3.2557 10.5872 3.34856 10.093 3.47519 9.56534C2.1245 10.2103 1.12837 11.1735 0.537448 12.5137C0.30952 13.0832 0.106917 13.4853 0.0224999 14.2391C-0.0619179 14.993 0.11536 15.8976 0.157568 16.0484C0.461472 17.1289 1.32253 17.7654 2.66477 17.9163C2.79984 17.933 2.93491 17.9749 3.06153 18H14.88C15.2768 17.9163 15.6736 17.8576 16.0619 17.7571C17.1255 17.4806 17.7756 16.819 17.936 15.7218C18.0879 14.8254 17.936 13.7114 17.8262 13.5607Z"  />
		<path d="M14.5842 13.477C14.9472 13.4853 15.2934 13.1503 15.2849 12.7984C15.2765 12.4384 14.9725 12.1536 14.6011 12.1451C14.2213 12.1451 13.9427 12.4216 13.9343 12.7984C13.9343 13.1671 14.2213 13.4686 14.5842 13.477Z" />
		<path d="M9.01316 9.80001C11.7406 9.80001 13.9516 7.60618 13.9516 4.89999C13.9516 2.1938 11.7406 0 9.01316 0C6.28573 0 4.07472 2.1938 4.07472 4.89999C4.07472 7.60618 6.28573 9.80001 9.01316 9.80001Z" />
	</symbol>
	<symbol id="arrow-fillter"  viewBox="0 0 17 8" >
		<path d="M0.5 4.18198C0.223858 4.18198 -2.41411e-08 3.95812 0 3.68198C2.41411e-08 3.40583 0.223858 3.18198 0.5 3.18198L0.5 4.18198ZM16.8536 3.32842C17.0488 3.52369 17.0488 3.84027 16.8536 4.03553L13.6716 7.21751C13.4763 7.41277 13.1597 7.41277 12.9645 7.21751C12.7692 7.02225 12.7692 6.70567 12.9645 6.5104L15.7929 3.68198L12.9645 0.85355C12.7692 0.658288 12.7692 0.341706 12.9645 0.146444C13.1597 -0.0488187 13.4763 -0.0488186 13.6716 0.146444L16.8536 3.32842ZM0.5 3.68198L0.5 3.18198L16.5 3.18198L16.5 3.68198L16.5 4.18198L0.5 4.18198L0.5 3.68198Z" />
	</symbol>
	<symbol id="arrow-left"  viewBox="0 0 22 15" >
		<path d="M20.834 8.36395C21.3863 8.36395 21.834 7.91624 21.834 7.36395C21.834 6.81167 21.3863 6.36395 20.834 6.36395L20.834 8.36395ZM0.29273 6.65685C-0.0977936 7.04737 -0.0977936 7.68054 0.29273 8.07106L6.65669 14.435C7.04722 14.8255 7.68038 14.8255 8.07091 14.435C8.46143 14.0445 8.46143 13.4113 8.07091 13.0208L2.41405 7.36395L8.07091 1.7071C8.46143 1.31658 8.46143 0.68341 8.07091 0.292886C7.68038 -0.0976385 7.04722 -0.0976384 6.65669 0.292886L0.29273 6.65685ZM20.834 7.36395L20.834 6.36395L0.999838 6.36395L0.999838 7.36395L0.999838 8.36395L20.834 8.36395L20.834 7.36395Z" />
	</symbol>
	<symbol id="arrow-right" viewBox="0 0 22 15">
		<path d="M1 8.36395C0.447715 8.36395 -5.0402e-08 7.91624 0 7.36395C5.0402e-08 6.81167 0.447715 6.36395 1 6.36395L1 8.36395ZM21.5413 6.65685C21.9318 7.04737 21.9318 7.68054 21.5413 8.07106L15.1773 14.435C14.7868 14.8255 14.1536 14.8255 13.7631 14.435C13.3726 14.0445 13.3726 13.4113 13.7631 13.0208L19.4199 7.36395L13.7631 1.7071C13.3726 1.31658 13.3726 0.68341 13.7631 0.292886C14.1536 -0.0976385 14.7868 -0.0976384 15.1773 0.292886L21.5413 6.65685ZM1 7.36395L1 6.36395L20.8341 6.36395L20.8341 7.36395L20.8341 8.36395L1 8.36395L1 7.36395Z"  />
	</symbol>
	<symbol id="cross" viewBox="0 0 20 20">
		<path d="M10.0002 18.5001L10.0002 1.50006M1.5 10.0002L18.5 10.0002"   stroke-width="3" stroke-linecap="round" stroke-linejoin="round"/>
	</symbol>


</svg>
