<svg xmlns="http://www.w3.org/2000/svg">
	<symbol id="social-vk" viewBox="0 0 20 21">
		<path d="M19.8142 15.2243C19.8142 15.1447 19.7346 15.1447 19.7346 15.0651C19.4163 14.4285 18.7002 13.6328 17.7453 12.7574C17.2678 12.3596 17.0291 12.0413 16.8699 11.8821C16.6312 11.5638 16.6312 11.3251 16.7108 11.0068C16.7904 10.7681 17.1087 10.3702 17.6657 9.65401C17.984 9.25613 18.1431 9.01741 18.3819 8.77869C19.5755 7.18718 20.1325 6.1527 19.9734 5.67525L19.8938 5.59568C19.8142 5.5161 19.7346 5.43653 19.5755 5.43653C19.4163 5.35696 19.1776 5.35696 18.9389 5.43653H15.915C15.8355 5.43653 15.8355 5.43653 15.6763 5.43653C15.5967 5.43653 15.5172 5.43653 15.5172 5.43653H15.4376H15.358L15.2784 5.5161C15.1989 5.59567 15.1989 5.59567 15.1989 5.67525C14.8806 6.55057 14.4827 7.26675 14.0848 8.0625C13.8461 8.46038 13.6074 8.85826 13.3686 9.17656C13.1299 9.49486 12.9707 9.73358 12.8116 9.89273C12.6524 10.0519 12.4933 10.1315 12.4137 10.2906C12.3341 10.3702 12.175 10.4498 12.175 10.3702C12.0954 10.3702 12.0158 10.3702 12.0158 10.2906C11.9363 10.211 11.8567 10.1315 11.7771 10.0519C11.6976 9.97231 11.6975 9.81316 11.618 9.65401C11.618 9.49485 11.618 9.3357 11.618 9.25613C11.618 9.17655 11.618 8.93784 11.618 8.77869C11.618 8.53996 11.618 8.38081 11.618 8.30123C11.618 8.0625 11.618 7.74421 11.618 7.42591C11.618 7.10761 11.618 6.86888 11.618 6.70973C11.618 6.55058 11.618 6.31185 11.618 6.1527C11.618 5.91398 11.618 5.75482 11.618 5.67525C11.618 5.59567 11.5384 5.43653 11.5384 5.35695C11.4588 5.27738 11.3792 5.1978 11.2997 5.11822C11.2201 5.03865 11.061 5.03865 10.9814 4.95907C10.5835 4.8795 10.1061 4.79993 9.54903 4.79993C8.27583 4.79993 7.4005 4.8795 7.0822 5.03865C6.92305 5.11823 6.7639 5.1978 6.68432 5.35695C6.52517 5.5161 6.52517 5.59568 6.60474 5.59568C7.00262 5.67525 7.32092 5.8344 7.48007 6.07312L7.55965 6.23228C7.63923 6.31186 7.63922 6.471 7.71879 6.70973C7.79837 6.94845 7.79837 7.18718 7.79837 7.50548C7.79837 7.98293 7.79837 8.46039 7.79837 8.77869C7.79837 9.17656 7.71879 9.41528 7.71879 9.65401C7.71879 9.89273 7.63923 10.0519 7.55965 10.1315C7.48008 10.2906 7.48007 10.3702 7.4005 10.3702C7.4005 10.3702 7.40049 10.4498 7.32091 10.4498C7.24134 10.4498 7.16177 10.5293 7.00262 10.5293C6.92304 10.5293 6.7639 10.4498 6.68432 10.3702C6.52517 10.2906 6.36602 10.1315 6.28645 9.97231C6.1273 9.81316 5.96814 9.57443 5.80899 9.25613C5.64984 8.93783 5.41111 8.61953 5.25196 8.14208L5.09282 7.82379C5.01324 7.66464 4.85409 7.34633 4.69494 6.94845C4.53579 6.55058 4.37664 6.23228 4.21749 5.83441C4.13791 5.67526 4.05835 5.59567 3.97877 5.5161H3.89919C3.89919 5.5161 3.81961 5.43653 3.74003 5.43653C3.66046 5.43653 3.58089 5.35695 3.50132 5.35695H0.636604C0.318303 5.35695 0.159155 5.43652 0.07958 5.5161L0 5.59568C0 5.59568 0 5.67525 0 5.75483C0 5.8344 4.8557e-06 5.91397 0.07958 6.07312C0.477456 7.02802 0.954905 7.98293 1.43236 8.93783C1.90981 9.81316 2.38726 10.6089 2.70556 11.1659C3.10344 11.723 3.42174 12.28 3.81961 12.7574C4.21749 13.2349 4.45621 13.5532 4.53578 13.7123C4.69493 13.8715 4.7745 13.9511 4.85408 14.0306L5.09282 14.2694C5.25197 14.4285 5.49069 14.6672 5.80899 14.906C6.12729 15.1447 6.52516 15.3834 6.92304 15.6221C7.32091 15.8609 7.79838 16.02 8.27583 16.1792C8.83285 16.3383 9.3103 16.4179 9.78775 16.3383H10.9814C11.2201 16.3383 11.3793 16.2587 11.5384 16.0996L11.618 16.02C11.618 15.9404 11.6975 15.9404 11.6975 15.8609C11.6975 15.7813 11.6975 15.7017 11.6975 15.5426C11.6975 15.2243 11.6976 14.9855 11.7771 14.7468C11.8567 14.5081 11.8567 14.349 11.9363 14.1898C12.0159 14.0307 12.0954 13.9511 12.175 13.8715C12.2546 13.7919 12.3342 13.7123 12.3342 13.7123H12.4137C12.5729 13.6328 12.8116 13.7123 12.9708 13.8715C13.2095 14.0306 13.4482 14.2694 13.6073 14.5081C13.7665 14.7468 14.0052 14.9855 14.3235 15.3038C14.6418 15.6221 14.8806 15.8609 15.0397 15.9405L15.2784 16.0996C15.4376 16.1792 15.5967 16.2588 15.8355 16.3383C16.0742 16.4179 16.2333 16.4179 16.3925 16.4179L19.0981 16.3383C19.3368 16.3383 19.5755 16.2588 19.7346 16.1792C19.8938 16.0996 19.9734 16.02 19.9734 15.8609C19.9734 15.7813 19.9734 15.6222 19.9734 15.5426C19.8142 15.3834 19.8142 15.3038 19.8142 15.2243Z" />
	</symbol>
</svg>
