<svg width="21" height="15" viewBox="0 0 21 15" fill="none" xmlns="http://www.w3.org/2000/svg">
<path d="M20 8.36395C20.5523 8.36395 21 7.91624 21 7.36395C21 6.81167 20.5523 6.36395 20 6.36395L20 8.36395ZM0.292892 6.65685C-0.0976315 7.04737 -0.0976314 7.68054 0.292893 8.07106L6.65686 14.435C7.04738 14.8255 7.68054 14.8255 8.07107 14.435C8.46159 14.0445 8.46159 13.4113 8.07107 13.0208L2.41421 7.36395L8.07107 1.7071C8.46159 1.31658 8.46159 0.68341 8.07107 0.292886C7.68054 -0.0976385 7.04738 -0.0976384 6.65685 0.292886L0.292892 6.65685ZM20 7.36395L20 6.36395L1 6.36395L1 7.36395L1 8.36395L20 8.36395L20 7.36395Z" fill="white"/>
</svg>
