<svg width="21" height="15" viewBox="0 0 21 15" fill="none" xmlns="http://www.w3.org/2000/svg">
<path d="M1 8.36395C0.447715 8.36395 -4.82823e-08 7.91624 0 7.36395C4.82823e-08 6.81167 0.447715 6.36395 1 6.36395L1 8.36395ZM20.7071 6.65685C21.0976 7.04737 21.0976 7.68054 20.7071 8.07106L14.3431 14.435C13.9526 14.8255 13.3195 14.8255 12.9289 14.435C12.5384 14.0445 12.5384 13.4113 12.9289 13.0208L18.5858 7.36395L12.9289 1.7071C12.5384 1.31658 12.5384 0.68341 12.9289 0.292886C13.3195 -0.0976385 13.9526 -0.0976384 14.3431 0.292886L20.7071 6.65685ZM1 7.36395L1 6.36395L20 6.36395L20 7.36395L20 8.36395L1 8.36395L1 7.36395Z" fill="white"/>
</svg>
