<svg width="15" height="32" viewBox="0 0 15 32" fill="none" xmlns="http://www.w3.org/2000/svg">
<path d="M8.36328 30.45C8.36328 31.0022 7.91557 31.45 7.36328 31.45C6.811 31.45 6.36328 31.0022 6.36328 30.45L7.36328 30.45L8.36328 30.45ZM6.65618 0.292845C7.0467 -0.0976792 7.67987 -0.0976791 8.07039 0.292845L14.4344 6.65681C14.8249 7.04733 14.8249 7.6805 14.4344 8.07102C14.0438 8.46154 13.4107 8.46154 13.0201 8.07102L7.36328 2.41417L1.70643 8.07102C1.3159 8.46154 0.682739 8.46154 0.292214 8.07102C-0.09831 7.6805 -0.0983099 7.04733 0.292214 6.65681L6.65618 0.292845ZM7.36328 30.45L6.36328 30.45L6.36328 0.999952L7.36328 0.999952L8.36328 0.999952L8.36328 30.45L7.36328 30.45Z" fill="white"/>
</svg>
