<svg width="22" height="15" viewBox="0 0 22 15" fill="none" xmlns="http://www.w3.org/2000/svg">
<path d="M21.9993 1.90669C21.9992 1.90484 21.9993 1.90295 21.9992 1.90106C21.9817 0.849877 21.1217 0 20.0664 0H1.93363C0.878366 0 0.0183482 0.849877 0.000859967 1.90106C-0.00051503 1.92912 0.000215437 8.63825 4.35626e-05 12.2461C4.35626e-05 13.3123 0.867452 14.1797 1.93363 14.1797H20.0664C21.1326 14.1797 22 13.3123 22 12.2461C21.9999 10.0688 22.0003 1.98245 21.9993 1.90669ZM1.93363 1.28906H20.0664C20.3229 1.28906 20.5443 1.44005 20.6479 1.65752L11.3867 8.57225C11.159 8.74301 10.841 8.74305 10.6122 8.57143L1.3521 1.65747C1.45578 1.44005 1.67711 1.28906 1.93363 1.28906ZM20.7109 12.2461C20.7109 12.6015 20.4218 12.8906 20.0664 12.8906H1.93363C1.57824 12.8906 1.2891 12.6015 1.2891 12.2461V3.21917L9.83987 9.6035C10.1816 9.85976 10.591 9.98785 11.0004 9.98785C11.4093 9.98785 11.8182 9.85993 12.1591 9.60431L20.7109 3.21917V12.2461Z" fill="#004D7D"/>
</svg>
