<svg width="20" height="20" viewBox="0 0 20 20" fill="none" xmlns="http://www.w3.org/2000/svg">
<path d="M7.61719 0C11.8173 0 15.2344 3.41707 15.2344 7.61719C15.2344 9.0818 14.8185 10.4509 14.0991 11.6134L19.4702 16.9844C19.8119 17.318 20 17.7645 20 18.2422C20 19.2114 19.2114 20 18.2422 20C17.7645 20 17.318 19.8119 16.9845 19.4702L11.6134 14.0991C10.4509 14.8185 9.0818 15.2344 7.61719 15.2344C3.41707 15.2344 0 11.8173 0 7.61719C0 3.41707 3.41707 0 7.61719 0ZM17.8218 18.6504C17.9332 18.765 18.0824 18.8281 18.2422 18.8281C18.5653 18.8281 18.8281 18.5653 18.8281 18.2422C18.8281 18.0825 18.765 17.9331 18.6504 17.8218C18.6464 17.818 18.738 17.9095 13.399 12.5705C13.1443 12.8673 12.8673 13.1443 12.5705 13.399C13.7645 14.5929 17.8178 18.6461 17.8218 18.6504ZM7.61719 14.0625C11.1711 14.0625 14.0625 11.1711 14.0625 7.61719C14.0625 4.06324 11.1711 1.17188 7.61719 1.17188C4.06324 1.17188 1.17188 4.06324 1.17188 7.61719C1.17188 11.1711 4.06324 14.0625 7.61719 14.0625Z" fill="white"/>
</svg>
