<svg width="22" height="13" viewBox="0 0 22 13" fill="none" xmlns="http://www.w3.org/2000/svg">
<path d="M19.5722 8.99621C17.7242 7.22773 17.9601 7.49685 20.2013 4.45966C21.5382 2.61428 22.0886 1.46092 21.9313 0.961134C21.8527 0.653571 20.7911 0.730462 20.7911 0.730462H17.4883C17.4883 0.730462 16.9771 0.730462 16.7805 1.07647C16.4267 1.73004 16.2694 2.53739 15.5616 3.7292C14.0675 6.30504 13.4777 6.45882 13.2418 6.30504C12.6913 5.92059 12.8093 4.80567 12.8093 3.99832C12.8093 1.49937 13.1632 0.461344 12.1016 0.153781C11.8656 0.0768906 11.669 0.0768901 11.3152 0.0384448C10.8827 -5.87203e-07 10.4502 0 10.057 0C9.07399 0 8.32692 0.0384449 7.81577 0.269117C7.42258 0.461344 7.14735 0.884243 7.34394 0.922689C7.57986 0.961134 8.05169 1.07647 8.32692 1.42248C8.68079 1.88382 8.64147 2.96029 8.64147 2.96029C8.64147 2.96029 8.83807 5.92059 8.16964 6.26659C7.73713 6.53571 7.10803 5.99748 5.8105 3.65231C5.14207 2.4605 5.06343 1.65315 4.63092 1.11492C4.35569 0.768907 3.84454 0.653571 3.84454 0.653571H0.699007C0.699007 0.653571 0.148539 0.615126 0.0699007 0.768907C-0.0873759 0.961134 0.0699007 1.34559 0.0699007 1.34559C0.0699007 1.34559 2.54701 7.30462 5.33867 10.3034C7.81577 13.1483 10.7254 12.9945 10.7254 12.9945C10.7254 12.9945 12.4161 13.0714 12.652 12.6485C12.8093 12.4947 12.8486 12.0334 12.8486 12.0334C12.8486 12.0334 12.8093 10.188 13.635 9.9189C14.4607 9.64979 15.483 11.6874 16.5839 12.4563C17.4096 13.0714 17.6456 12.9945 18.0387 12.9945H20.9877C20.9877 12.9945 22.5211 12.8408 21.8134 11.5721C21.6954 11.4952 21.3416 10.6878 19.5722 8.99621Z" fill="white"/>
</svg>
