<svg width="33" height="47" viewBox="0 0 33 47" fill="none" xmlns="http://www.w3.org/2000/svg">
<path d="M31.1757 0H4.0664C1.82419 0 0 1.82419 0 4.0664V34.0674C0 36.3096 1.82419 38.1338 4.0664 38.1338H10.8437V44.9111C10.8437 45.4594 11.174 45.9536 11.6805 46.1634C12.1869 46.3732 12.7701 46.2572 13.1577 45.8696L14.9101 44.1171L16.6627 45.8696C16.922 46.1289 17.2686 46.2667 17.6214 46.2667C17.796 46.2667 17.9721 46.2329 18.1398 46.1635C18.6463 45.9536 18.9766 45.4594 18.9766 44.9112V38.1339H31.1758C31.9244 38.1339 32.5313 37.527 32.5313 36.7784V1.35547C32.5312 0.606887 31.9243 0 31.1757 0ZM8.1328 35.4228H4.0664C3.31899 35.4228 2.71093 34.8148 2.71093 34.0674V4.0664C2.71093 3.31899 3.31899 2.71093 4.0664 2.71093H8.1328V35.4228ZM16.2656 41.6387L15.8685 41.2417C15.3393 40.7123 14.481 40.7123 13.9516 41.2417L13.5547 41.6387V38.1338H16.2656V41.6387ZM29.8203 35.4228H10.8437V2.71093H29.8203V35.4228ZM14.9101 13.5547H25.7539C26.5024 13.5547 27.1093 12.9478 27.1093 12.1992C27.1093 11.4506 26.5024 10.8437 25.7539 10.8437H14.9101C14.1615 10.8437 13.5547 11.4506 13.5547 12.1992C13.5547 12.9478 14.1615 13.5547 14.9101 13.5547ZM14.9101 8.1328H25.7539C26.5024 8.1328 27.1093 7.52591 27.1093 6.77733C27.1093 6.02875 26.5024 5.42186 25.7539 5.42186H14.9101C14.1615 5.42186 13.5547 6.02875 13.5547 6.77733C13.5547 7.52591 14.1615 8.1328 14.9101 8.1328Z" fill="white"/>
</svg>
