<svg width="46" height="42" viewBox="0 0 46 42" fill="none" xmlns="http://www.w3.org/2000/svg">
<path d="M22.75 27.869C28.1697 27.869 32.5633 32.2244 32.5633 37.5969V40.25H12.9367V37.5969C12.9367 32.2244 17.3303 27.869 22.75 27.869ZM22.75 27.869C25.7062 27.869 28.1027 25.4934 28.1027 22.5629C28.1027 19.6324 25.7062 17.2568 22.75 17.2568C19.7938 17.2568 17.3973 19.6324 17.3973 22.5629C17.3973 25.4934 19.7938 27.869 22.75 27.869ZM1.25 22.5629H11.9554M1.25 22.5629L4.81846 26.1003M1.25 22.5629L4.81846 19.0255M33.5446 22.5629H44.25M44.25 22.5629L40.6815 19.0255M44.25 22.5629L40.6815 26.1003M7.54718 7.49239L15.1171 14.9964M7.54718 7.49239V12.4951M7.54718 7.49239H12.5938M30.3829 14.9964L37.9528 7.49239M37.9528 7.49239H32.9062M37.9528 7.49239V12.4951M22.75 1.25V11.8622M22.75 1.25L19.1815 4.78741M22.75 1.25L26.3185 4.78741" stroke="white" stroke-width="2.5" stroke-miterlimit="10" stroke-linecap="round" stroke-linejoin="round"/>
</svg>
