<svg width="43" height="43" viewBox="0 0 43 43" fill="none" xmlns="http://www.w3.org/2000/svg">
<path d="M6.22925 35.4409C3.47929 35.4409 1.25 37.6702 1.25 40.4201V41.25H11.2085V40.4201C11.2085 37.6702 8.97921 35.4409 6.22925 35.4409ZM6.22925 35.4409C4.6251 35.4409 3.32469 34.1405 3.32469 32.5363C3.32469 30.9322 4.6251 29.6317 6.22925 29.6317C7.8334 29.6317 9.13382 30.9322 9.13382 32.5363C9.13382 34.1405 7.8334 35.4409 6.22925 35.4409ZM21.25 35.4409C18.5 35.4409 16.2707 37.6702 16.2707 40.4201V41.25H26.2293V40.4201C26.2293 37.6702 24 35.4409 21.25 35.4409ZM21.25 35.4409C19.6459 35.4409 18.3454 34.1405 18.3454 32.5363C18.3454 30.9322 19.6459 29.6317 21.25 29.6317C22.8542 29.6317 24.1546 30.9322 24.1546 32.5363C24.1546 34.1405 22.8542 35.4409 21.25 35.4409ZM36.2707 35.4409C33.5208 35.4409 31.2915 37.6702 31.2915 40.4201V41.25H41.25V40.4201C41.25 37.6702 39.0207 35.4409 36.2707 35.4409ZM36.2707 35.4409C34.6666 35.4409 33.3662 34.1405 33.3662 32.5363C33.3662 30.9322 34.6666 29.6317 36.2707 29.6317C37.8749 29.6317 39.1753 30.9322 39.1753 32.5363C39.1753 34.1405 37.8749 35.4409 36.2707 35.4409ZM41.25 1.25H1.25M41.25 1.25V24.6525M41.25 1.25V16.3537M41.25 1.25H32.9512V9.71473C32.9512 13.3814 35.9236 16.3537 39.5903 16.3537M1.25 1.25V24.6525M1.25 1.25H9.54876V9.71473C9.54876 13.3814 6.57639 16.3537 2.90975 16.3537M1.25 1.25V16.3537M1.25 24.6525H41.25M1.25 24.6525V16.3537M1.25 24.6525H9.54876V22.9927C9.54876 19.3261 6.57639 16.3537 2.90975 16.3537M41.25 24.6525H32.9512V22.9927C32.9512 19.3261 35.9236 16.3537 39.5903 16.3537M41.25 24.6525V16.3537M1.25 16.3537H2.90975M39.5903 16.3537H41.25M17.9305 7.97199V17.9305L26.2293 12.9512L17.9305 7.97199Z" stroke="white" stroke-width="2.5" stroke-miterlimit="10" stroke-linecap="round" stroke-linejoin="round"/>
</svg>
