<svg width="40" height="40" viewBox="0 0 40 40" fill="none" xmlns="http://www.w3.org/2000/svg">
<path d="M38.25 10.4616V15.0674C38.25 20.1549 32.0637 24.279 24.4326 24.279C16.8014 24.279 10.6151 20.1549 10.6151 15.0674V10.4616M38.25 10.4616C38.25 15.549 32.0637 19.6732 24.4326 19.6732C16.8014 19.6732 10.6151 15.549 10.6151 10.4616M38.25 10.4616C38.25 5.3742 32.0637 1.25 24.4326 1.25C16.8014 1.25 10.6151 5.3742 10.6151 10.4616M1.25 24.4326V29.0384C1.25 34.1258 7.43629 38.25 15.0674 38.25C22.6986 38.25 28.8849 34.1258 28.8849 29.0384V24.4326M1.25 24.4326C1.25 20.3755 5.18413 16.9312 10.6477 15.7023M1.25 24.4326C1.25 29.52 7.43629 33.6442 15.0674 33.6442C22.6986 33.6442 28.8849 29.52 28.8849 24.4326M28.8849 24.4326C28.8849 24.2192 28.8737 24.0075 28.8523 23.7977" stroke="white" stroke-width="2.5" stroke-miterlimit="10" stroke-linecap="round" stroke-linejoin="round"/>
</svg>
