<svg width="54" height="54" viewBox="0 0 54 54" fill="none" xmlns="http://www.w3.org/2000/svg">
<path fill-rule="evenodd" clip-rule="evenodd" d="M31.4662 3.97062C33.1234 4.11605 35.1524 4.96176 36.6896 5.581C41.1327 7.3697 44.8351 11.1046 47.5191 15.5328C48.7099 17.497 49.4518 19.8146 50.0294 22.2263L50.4393 25.4985C50.6959 27.2802 50.1813 30.4681 49.9006 32.0965L49.5329 33.498C49.4958 33.6138 49.3096 34.1817 49.2934 34.2298C49.1721 34.5925 49.1587 34.5897 49.0767 34.925C48.2912 36.4997 48.6182 36.2334 47.5955 38.0953C47.5149 38.2417 47.5367 38.2129 47.4487 38.394L46.1495 40.4342C45.9652 40.6853 45.9018 40.7621 45.7461 40.9784L45.2631 41.5893C44.9176 42.0057 44.6475 42.2794 44.2691 42.681L40.9456 45.7123C40.7473 45.8476 40.5922 45.9587 40.3981 46.0907L37.6947 47.7034C35.3113 48.8025 34.7583 49.0957 32.348 49.6454C31.6482 49.8047 31.1082 49.8983 30.4769 50.0294C29.5798 50.0294 29.0777 50.1933 27.9879 50.1887C27.0204 50.1845 26.0524 50.1882 25.0849 50.1882C23.8445 49.8909 22.1443 49.7473 20.9665 49.4148L17.3118 48.1235C16.6036 47.508 13.8858 46.7025 10.6007 43.3984C10.3506 43.1469 10.1097 42.945 9.89389 42.6967L9.25242 41.8876C8.79621 41.3679 8.42754 40.8529 8.00792 40.2735L6.19699 37.1611C6.17939 37.1296 6.15763 37.0884 6.14003 37.0583L5.87649 36.6882C5.79035 36.3191 5.70142 36.1584 5.58332 35.8708L4.17255 31.104C4.07112 30.5283 3.99146 29.2773 3.81175 28.9151C3.81175 28.0226 3.81546 27.1297 3.81036 26.2376C3.80481 25.2581 3.97062 24.4953 3.97062 23.5231L4.5653 20.9281C4.6181 20.7358 4.59958 20.7507 4.67415 20.577L4.92332 20.1708C5.61574 20.332 5.81952 20.6446 6.51194 20.8058C6.49804 20.2 6.39013 19.8457 6.35122 19.0639C6.28314 17.6976 5.87649 15.0534 5.87649 13.6589L3.11008 15.5249C3.08321 15.5448 3.04477 15.5712 3.01745 15.5897C2.97947 15.6161 2.86646 15.6824 2.82755 15.7069C2.39265 15.9806 0.155156 17.3664 0 17.9472C0.680373 18.1056 1.0458 18.2955 1.58815 18.5822C1.41308 19.3348 1.14677 20.0161 0.952707 20.815C0.972159 21.3115 0.317723 23.8394 0.317723 25.7296C0.317723 26.755 0.263534 27.9319 0.316797 28.9383L0.794308 31.7649C0.794308 34.6263 3.5862 40.3699 5.69401 43.0649C7.41601 45.2668 8.90459 46.7442 11.1157 48.4431C12.8812 49.7997 15.7463 51.3966 18.1806 52.1932L21.2708 53.0867C21.5334 53.1422 21.8905 53.2474 22.3939 53.3645C23.3156 53.3854 24.2526 53.6762 25.2636 53.6888C26.309 53.7013 27.3724 53.6823 28.42 53.6823C29.4454 53.6823 30.0605 53.6096 30.9827 53.5003C31.645 53.422 32.6713 53.1066 33.3359 53.0473C34.2697 52.655 35.7323 52.5369 37.9573 51.4587L44.5924 47.3176C47.0893 45.0375 48.5496 43.3502 50.3531 40.3847C50.7954 39.6571 51.6175 38.1819 51.7764 37.4659C52.4721 36.232 53.1219 33.926 53.4317 32.3295C53.8638 30.1027 54 28.5298 54 25.8801C54 24.0117 53.3618 20.6891 52.7912 18.9953C52.133 17.0413 51.8718 16.2743 50.8779 14.4235L49.01 11.3422C44.2997 4.7112 36.0431 0 27.8133 0C25.6406 0 24.0849 0.178777 22.2582 0.474269C21.3889 0.615068 18.9022 1.23569 18.0167 1.63076L17.4576 1.90588H16.994C17.019 3.023 18.0125 4.11882 18.1061 5.24104L19.8447 4.60606C21.1013 4.50602 22.7969 3.66493 25.4359 3.6566C27.0394 3.65104 25.7194 3.33471 28.4719 3.63251C29.7243 3.76822 30.3699 3.72931 31.4662 3.97062ZM29.5413 21.759C30.2666 21.2731 30.6311 20.8049 31.2615 20.3028C32.5713 19.2593 36.3316 17.1163 37.7998 16.994V34.4646C34.925 34.4646 29.3028 36.0991 27 37.6414L24.5068 36.3228C23.5713 35.9574 22.5269 35.6059 21.5357 35.3229C15.8505 33.7004 16.171 35.6026 16.1988 32.719C16.2493 27.434 16.2002 22.123 16.2002 16.8352C17.2515 16.9227 19.27 18.0009 20.1036 18.4905L24.6574 22.1957C26.9166 24.455 28.9073 28.4293 27.1589 28.4293C26.1006 28.4293 26.5234 26.9727 26.5234 25.7296C26.5234 24.9001 25.5216 23.9358 24.8769 23.0877C24.5365 22.6403 24.5911 22.6037 23.9826 22.5528C23.4295 24.9251 22.5528 23.7311 22.5528 28.112C22.5528 29.9688 24.6217 32.241 26.5234 32.241C27.9597 32.241 29.4663 32.2373 30.5927 30.7515C33.254 27.2422 30.8757 24.7458 29.5413 21.759ZM12.2296 14.9293V35.5767C12.2296 36.7952 12.8155 37.2686 13.0313 37.4742C14.3666 38.7451 15.1266 38.0198 17.5378 38.527C19.4094 38.9206 22.4231 39.5149 24.0381 40.4444C25.1478 41.0826 26.2131 42.7796 26.8411 43.2002C28.7118 42.7004 27.6549 40.3962 34.1071 39.0309C36.9008 38.4394 36.1644 38.5459 39.0531 38.2588C40.8219 38.0828 41.7704 36.892 41.7704 35.1001V15.7236C41.7704 14.022 40.7344 12.7057 39.0707 12.7057C37.9503 12.7057 33.4471 14.2957 32.3054 14.9937L28.3603 17.7189C26.7828 18.9471 27.251 19.1005 26.1547 18.157C22.9946 15.4392 19.8698 13.2541 15.6101 12.6529C13.4384 12.3467 12.2296 13.8511 12.2296 14.9293ZM12.5468 4.28834L14.4527 7.30578C15.0391 6.91349 15.7398 6.37531 16.5174 6.19422L14.927 3.01883C14.3119 3.16149 13.148 3.97015 12.5468 4.28834ZM8.57668 7.62351C8.90413 8.11306 9.25381 8.3187 9.64147 8.78232C10.1051 9.33671 10.188 9.59608 10.7998 10.006C11.3533 9.85822 12.5468 8.57946 13.5 7.94123C13.3351 7.32338 12.9229 6.98528 12.5783 6.48044C12.2259 5.96356 11.9271 5.57961 11.5941 5.08218C11.0092 5.23873 10.4756 5.85519 10.0282 6.21645C9.46964 6.66709 8.97128 7.03391 8.57668 7.62351Z" fill="white"/>
</svg>
