<svg width="35" height="46" viewBox="0 0 35 46" fill="none" xmlns="http://www.w3.org/2000/svg">
<path d="M3.91667 44.25H30.5833M4.80555 13.0259V8.38693L7.3644 5.81879M27.1356 5.81879L29.6944 8.38693V13.0259M7.47222 44.25H27.0278L30.5833 18.3786H3.91667L7.47222 44.25ZM1.25 15.7023C1.25 14.2241 2.44387 13.0259 3.91667 13.0259H30.5833C32.0561 13.0259 33.25 14.2241 33.25 15.7023V18.3786H1.25V15.7023ZM19.1728 27.6415L23.4722 28.2685L20.3611 31.3121L21.0955 35.6097L17.25 33.5806L13.4045 35.6097L14.1389 31.3121L11.0278 28.2685L15.3272 27.6415L17.25 23.7313L19.1728 27.6415ZM9.25 1.25C10.7228 1.25 11.9167 2.4482 11.9167 3.92635C11.9167 5.4045 10.7228 6.6027 9.25 6.6027C7.7772 6.6027 6.58333 5.4045 6.58333 3.92635C6.58333 2.4482 7.7772 1.25 9.25 1.25ZM27.9167 3.92635C27.9167 5.4045 26.7228 6.6027 25.25 6.6027C23.7772 6.6027 22.5833 5.4045 22.5833 3.92635C22.5833 2.4482 23.7772 1.25 25.25 1.25C26.7228 1.25 27.9167 2.4482 27.9167 3.92635Z" stroke="white" stroke-width="2.5" stroke-miterlimit="10" stroke-linecap="round" stroke-linejoin="round"/>
</svg>
