<svg width="95" height="95" viewBox="0 0 95 95" fill="none" xmlns="http://www.w3.org/2000/svg">
<circle cx="47.5" cy="47.5" r="47.5" fill="#ABD1E9"/>
<path d="M66.1029 23.9131C66.0561 23.9131 59.321 23.9131 59.2742 23.9131C59.0748 19.4946 55.4276 16.0122 50.987 16H43.0211C38.5826 16.0142 34.9373 19.4987 34.74 23.9131H27.9784C25.9951 23.9212 25.9748 26.9418 27.9784 26.9519H66.0968C70.4438 26.962 73.9609 30.483 73.9487 34.8123V40.353C68.3079 44.5324 61.6908 47.2066 54.7217 48.1243C54.9027 45.75 53.0517 43.6593 50.6371 43.6674H43.371C40.9585 43.6593 39.1054 45.75 39.2864 48.1243C32.3173 47.2086 25.7002 44.5365 20.0594 40.3611V34.79C20.0452 32.7986 17 32.8289 17 34.8123V41.2525H17.0081V45.5008C17.0346 46.1714 17.6184 61.9732 17.716 63.6506C17.8706 66.3389 18.847 68.9179 20.5171 71.0369C22.6611 73.6908 26.0175 75.1839 29.4349 74.959H64.6505C71.0582 75.5425 76.2636 69.7991 76.467 63.6628C76.5789 61.9712 76.9817 46.1592 77 45.4866C77 45.4501 77 34.8528 77 34.8143C77.0142 28.8076 72.1342 23.9272 66.1029 23.9131ZM37.7913 23.9131C37.9845 21.1741 40.2689 19.0469 43.0272 19.0388H50.9849C53.7433 19.0469 56.0276 21.1741 56.2209 23.9131H37.7913ZM42.3377 47.7414C42.3397 47.1742 42.8015 46.7143 43.371 46.7123H50.6371C51.2067 46.7143 51.6684 47.1742 51.6704 47.7414V51.3434C51.6684 51.9107 51.2067 52.3705 50.6371 52.3726H43.371C42.8015 52.3705 42.3397 51.9107 42.3377 51.3434V47.7414ZM73.9487 45.4117C73.9487 45.5778 73.5419 61.8354 73.4219 63.4764C73.2815 68.0123 69.5508 72.3923 64.7542 71.9263H29.3312C24.5651 72.368 20.9097 67.9657 20.7612 63.4784C20.6432 61.1892 19.9984 44.8829 20.0594 44.1394C25.8527 47.9015 32.4251 50.3102 39.2864 51.1854C39.203 53.4868 41.0541 55.4195 43.371 55.4175H50.6371C52.9499 55.4195 54.8031 53.4908 54.7217 51.1915C61.583 50.3143 68.1554 47.9035 73.9487 44.1374V45.4117Z" fill="white"/>
</svg>
