<svg width="95" height="95" viewBox="0 0 95 95" fill="none" xmlns="http://www.w3.org/2000/svg">
<circle cx="47.5" cy="47.5" r="47.5" fill="#ABD1E9"/>
<path d="M62.8046 74.55C61.3227 74.55 59.4165 74.0839 57.0414 72.6801L48.6965 67.7401C47.8481 67.235 46.1568 67.2406 45.2888 67.7485L36.9579 72.6801C32.0263 75.605 29.1098 74.4467 27.8092 73.5006C26.5114 72.5489 24.5243 70.1236 25.8165 64.5473L27.7953 55.9792C28.0018 55.0582 27.5692 53.5455 26.905 52.8812L19.9835 45.9597C16.5367 42.5102 16.8046 39.5462 17.2735 38.0865C17.7423 36.6269 19.2439 34.0592 24.0498 33.261L32.9529 31.7818C33.7734 31.6423 34.9875 30.7408 35.3531 29.9956L40.2707 20.1548C42.4979 15.6782 45.42 15.0028 46.9633 15H46.9745C48.5235 15 51.4484 15.6726 53.6951 20.1521L58.6127 29.9789C58.7355 30.2357 58.9978 30.5901 59.422 30.9334C60.3207 31.6618 60.4603 32.9791 59.7318 33.8778C59.0006 34.7765 57.6833 34.9133 56.7874 34.1876C55.9362 33.4983 55.2468 32.6554 54.8477 31.8097L49.9552 22.0248C49.0621 20.2469 47.9485 19.1836 46.9773 19.1836C46.9773 19.1836 46.9773 19.1836 46.9745 19.1836C46.0061 19.1836 44.9008 20.2469 44.0189 22.022L39.1041 31.8488C38.1524 33.7913 35.8024 35.5412 33.645 35.9068L24.7364 37.3888C22.8553 37.7014 21.5547 38.441 21.2589 39.3648C20.9631 40.2886 21.5938 41.6478 22.9446 42.9986L29.8661 49.9201C31.5323 51.589 32.4003 54.5921 31.8812 56.9086L29.894 65.4907C29.2577 68.2341 29.7043 69.6994 30.2792 70.1208C30.8569 70.5394 32.3919 70.5227 34.8228 69.0798L43.1705 64.137C45.3781 62.8476 48.6658 62.8588 50.8288 64.137L59.1709 69.077C61.6213 70.5255 63.1563 70.545 63.7312 70.1292C64.3006 69.7133 64.7415 68.2453 64.108 65.4879L62.1264 56.9225C61.6018 54.5949 62.4641 51.589 64.1359 49.9201L71.0574 42.9986C72.4138 41.6506 73.0473 40.297 72.7515 39.3732C72.4585 38.4466 71.1523 37.7042 69.2601 37.3888C68.1186 37.199 67.3483 36.1189 67.5381 34.9802C67.7278 33.8388 68.7968 33.0629 69.9466 33.2582C74.7721 34.062 76.2737 36.6381 76.7425 38.1005C77.2058 39.5602 77.471 42.5241 74.0102 45.9597L67.0915 52.8785C66.4245 53.5455 65.9919 55.0554 66.204 55.9875L68.1828 64.5445C69.4722 70.1375 67.4934 72.5573 66.2012 73.5034C65.5314 74.0002 64.415 74.55 62.8046 74.55Z" fill="white"/>
</svg>
