<svg width="95" height="95" viewBox="0 0 95 95" fill="none" xmlns="http://www.w3.org/2000/svg">
<circle cx="47.5" cy="47.5" r="47.5" fill="#ABD1E9"/>
<path d="M68.5061 23.4951C63.0287 18.0169 55.7462 15 48 15C40.2538 15 32.9713 18.0169 27.4939 23.4951C22.0165 28.9732 19 36.2566 19 44.0039V51.9961C19 55.1946 21.6019 57.7969 24.8 57.7969H26.7333V59.7305C26.7333 62.929 29.3352 65.5312 32.5333 65.5312H36.4C37.4677 65.5312 38.3333 64.6655 38.3333 63.5977V48.1289C38.3333 47.061 37.4677 46.1953 36.4 46.1953H32.5333C29.3352 46.1953 26.7333 48.7975 26.7333 51.9961V53.9297H24.8C23.734 53.9297 22.8667 53.0623 22.8667 51.9961V44.0039C22.8667 30.1435 34.1415 18.8672 48 18.8672C61.8585 18.8672 73.1333 30.1435 73.1333 44.0039V51.9961C73.1333 53.0623 72.266 53.9297 71.2 53.9297H69.2667V51.9961C69.2667 48.7975 66.6648 46.1953 63.4667 46.1953H59.6C58.5323 46.1953 57.6667 47.061 57.6667 48.1289V63.5977C57.6667 64.6655 58.5323 65.5312 59.6 65.5312H63.4667C64.0911 65.5312 64.6923 65.4308 65.2563 65.2474C64.471 69.7947 60.5011 73.2656 55.7333 73.2656H53.4675C52.6694 71.0152 50.5204 69.3984 48 69.3984C44.8019 69.3984 42.2 72.0007 42.2 75.1992C42.2 78.3978 44.8019 81 48 81C50.5204 81 52.6694 79.3833 53.4675 77.1328H55.7333C63.1956 77.1328 69.2667 71.0609 69.2667 63.5977V57.7969H71.2C74.3981 57.7969 77 55.1946 77 51.9961V44.0039C77 36.2566 73.9835 28.9732 68.5061 23.4951ZM30.6 51.9961C30.6 50.9299 31.4673 50.0625 32.5333 50.0625H34.4667V61.6641H32.5333C31.4673 61.6641 30.6 60.7967 30.6 59.7305V51.9961ZM48 77.1328C46.934 77.1328 46.0667 76.2654 46.0667 75.1992C46.0667 74.133 46.934 73.2656 48 73.2656C49.066 73.2656 49.9333 74.133 49.9333 75.1992C49.9333 76.2654 49.066 77.1328 48 77.1328ZM65.4 59.7305C65.4 60.7967 64.5327 61.6641 63.4667 61.6641H61.5333V50.0625H63.4667C64.5327 50.0625 65.4 50.9299 65.4 51.9961V59.7305Z" fill="white"/>
</svg>
